<svg xmlns="http://www.w3.org/2000/svg" width="2400" height="1923" viewBox="0 0 2400 1923">
  <defs><style>
      .bg { fill: #fafbfc; }
      .title { font: 700 26px Arial, sans-serif; fill: #0f172a; }
      .subtitle { font: 500 13px Arial, sans-serif; fill: #475569; }
      .section { font: 700 14px Arial, sans-serif; fill: #0f172a; }
      .level-label { font: 700 13px Arial, sans-serif; fill: #ffffff; }
      .label { font: 600 11px Arial, sans-serif; fill: #0f172a; }
      .ver { font: 500 10px Arial, sans-serif; fill: #64748b; }
      .small { font: 500 10px Arial, sans-serif; fill: #64748b; }
      .desc { font: 500 11px Arial, sans-serif; fill: #334155; }
      .lib { fill: #dbeafe; stroke: #3b82f6; stroke-width: 1.4; rx: 6; }
      .svc { fill: #fce7f3; stroke: #db2777; stroke-width: 1.4; rx: 6; }
      .api { fill: #f3e8ff; stroke: #7c3aed; stroke-width: 1.4; rx: 6; }
      .ui-box { fill: #ecfeff; stroke: #06b6d4; stroke-width: 1.4; rx: 6; }
      .infra { fill: #f1f5f9; stroke: #64748b; stroke-width: 1.4; rx: 6; }
      .devops { fill: #f0fdf4; stroke: #16a34a; stroke-width: 1.4; rx: 6; }
      .test { fill: #fef3c7; stroke: #d97706; stroke-width: 1.4; rx: 6; }
      .future { fill: #f8fafc; stroke: #cbd5e1; stroke-width: 1; rx: 6; stroke-dasharray: 4 2; }
      .level-bg { fill: #ffffff; stroke: #e2e8f0; stroke-width: 1; rx: 10; }
      .level-badge { rx: 4; }
      .legend-box { fill: #ffffff; stroke: #e2e8f0; stroke-width: 1; rx: 8; }
  </style></defs>
  <rect class="bg" x="0" y="0" width="2400" height="1923" />
  <text x="40" y="38" class="title">Workspace Manifest - Topological DAG (13 levels)</text>
  <text x="40" y="58" class="subtitle">53 repos. SSOT: workspace-manifest.json. Generated by unified-trading-pm/scripts/manifest/generate_workspace_dag.py</text>
  <text x="40" y="74" class="subtitle">Quickmerge in level order: L0 first, then L1, etc. Version bumps auto-triggered by GitHub Actions on merge to main.</text>
  <rect x="1700" y="15" width="670" height="105" class="legend-box" />
  <text x="1720" y="36" class="section">Legend</text>
  <text x="1720" y="88" class="small">CI status:</text>
  <circle cx="1726" cy="95" r="4" fill="#facc15" stroke="#e2e8f0" stroke-width="1" />
  <text x="1734" y="98" class="small">LOCAL_PASS</text>
  <circle cx="1821" cy="95" r="4" fill="#84cc16" stroke="#e2e8f0" stroke-width="1" />
  <text x="1829" y="98" class="small">FEATURE_GREEN</text>
  <circle cx="1916" cy="95" r="4" fill="#eab308" stroke="#e2e8f0" stroke-width="1" />
  <text x="1924" y="98" class="small">STAGING_PENDING</text>
  <circle cx="2011" cy="95" r="4" fill="#22c55e" stroke="#e2e8f0" stroke-width="1" />
  <text x="2019" y="98" class="small">STAGING_GREEN</text>
  <circle cx="2106" cy="95" r="4" fill="#10b981" stroke="#e2e8f0" stroke-width="1" />
  <text x="2114" y="98" class="small">SIT_VALIDATED</text>
  <circle cx="2201" cy="95" r="4" fill="#ef4444" stroke="#e2e8f0" stroke-width="1" />
  <text x="2209" y="98" class="small">FAILING</text>
  <circle cx="2296" cy="95" r="4" fill="#94a3b8" stroke="#e2e8f0" stroke-width="1" />
  <text x="2304" y="98" class="small">EXEMPT</text>
  <rect x="1720" y="46" width="50" height="16" class="lib" /><text x="1778" y="58" class="small">library</text>
  <rect x="1840" y="46" width="50" height="16" class="svc" /><text x="1898" y="58" class="small">service</text>
  <rect x="1960" y="46" width="50" height="16" class="api" /><text x="2018" y="58" class="small">api-service</text>
  <rect x="2100" y="46" width="50" height="16" class="ui-box" /><text x="2158" y="58" class="small">ui</text>
  <rect x="1720" y="66" width="50" height="16" class="infra" /><text x="1778" y="78" class="small">infrastructure</text>
  <rect x="1880" y="66" width="50" height="16" class="devops" /><text x="1938" y="78" class="small">devops</text>
  <rect x="2020" y="66" width="50" height="16" class="test" /><text x="2078" y="78" class="small">test-harness</text>
  <rect x="2160" y="66" width="50" height="16" class="future" /><text x="2218" y="78" class="small">future</text>
  <!-- L0: Project management — pure root (manifest, templates, scripts, cursor rules). No dependencies. (1 repos) -->
  <rect x="40" y="200" width="2320" height="107" class="level-bg" />
  <rect x="55" y="208" width="80" height="22" fill="#1e3a5f" class="level-badge" />
  <text x="95" y="224" text-anchor="middle" class="level-label">L0</text>
  <text x="150" y="224" class="desc">Project management — pure root (manifest, templates, scripts, cursor rules). No dependencies. (1 repos)</text>
  <rect x="70" y="247" width="146" height="38" class="devops" />
  <rect x="70" y="247" width="4" height="38" fill="#ef4444" rx="2" />
  <text x="143" y="265" text-anchor="middle" class="label">unified-trading-pm</text>
  <circle cx="206" cy="255" r="6" fill="#ef4444" stroke="#fff" stroke-width="1" />
  <text x="143" y="277" text-anchor="middle" class="ver">1.2.0</text>
  <!-- L1: Standards &amp; codex — coding standards, architecture docs, quality gate templates. Depends on PM. (1 repos) -->
  <rect x="40" y="319" width="2320" height="107" class="level-bg" />
  <rect x="55" y="327" width="80" height="22" fill="#16a34a" class="level-badge" />
  <text x="95" y="343" text-anchor="middle" class="level-label">L1</text>
  <text x="150" y="343" class="desc">Standards &amp; codex — coding standards, architecture docs, quality gate templates. Depends on PM. (1 repos)</text>
  <rect x="70" y="366" width="167" height="38" class="infra" />
  <rect x="70" y="366" width="4" height="38" fill="#facc15" rx="2" />
  <text x="153" y="384" text-anchor="middle" class="label">unified-trading-codex</text>
  <circle cx="227" cy="374" r="6" fill="#facc15" stroke="#fff" stroke-width="1" />
  <text x="153" y="396" text-anchor="middle" class="ver">1.0.0</text>
  <!-- L2: Foundation — zero inter-library dependencies (Tier 0). Depends on PM + codex for CI standards. (4 repos) -->
  <rect x="40" y="438" width="2320" height="107" class="level-bg" />
  <rect x="55" y="446" width="80" height="22" fill="#3b82f6" class="level-badge" />
  <text x="95" y="462" text-anchor="middle" class="level-label">L2</text>
  <text x="150" y="462" class="desc">Foundation — zero inter-library dependencies (Tier 0). Depends on PM + codex for CI standards. (4 repos)</text>
  <rect x="70" y="485" width="167" height="38" class="lib" />
  <rect x="70" y="485" width="4" height="38" fill="#ef4444" rx="2" />
  <text x="153" y="503" text-anchor="middle" class="label">unified-api-contracts</text>
  <circle cx="227" cy="493" r="6" fill="#ef4444" stroke="#fff" stroke-width="1" />
  <text x="153" y="515" text-anchor="middle" class="ver">0.2.38</text>
  <rect x="247" y="485" width="181" height="38" class="lib" />
  <rect x="247" y="485" width="4" height="38" fill="#facc15" rx="2" />
  <text x="337" y="503" text-anchor="middle" class="label">unified-cloud-interface</text>
  <circle cx="418" cy="493" r="6" fill="#facc15" stroke="#fff" stroke-width="1" />
  <text x="337" y="515" text-anchor="middle" class="ver">0.11.39</text>
  <rect x="438" y="485" width="188" height="38" class="lib" />
  <rect x="438" y="485" width="4" height="38" fill="#facc15" rx="2" />
  <text x="532" y="503" text-anchor="middle" class="label">unified-events-interface</text>
  <circle cx="616" cy="493" r="6" fill="#facc15" stroke="#fff" stroke-width="1" />
  <text x="532" y="515" text-anchor="middle" class="ver">0.2.48</text>
  <rect x="636" y="485" width="202" height="38" class="lib" />
  <rect x="636" y="485" width="4" height="38" fill="#ef4444" rx="2" />
  <text x="737" y="503" text-anchor="middle" class="label">unified-internal-contracts</text>
  <circle cx="828" cy="493" r="6" fill="#ef4444" stroke="#fff" stroke-width="1" />
  <text x="737" y="515" text-anchor="middle" class="ver">0.1.95</text>
  <!-- L3: Services runtime (Tier 1) (3 repos) -->
  <rect x="40" y="557" width="2320" height="107" class="level-bg" />
  <rect x="55" y="565" width="80" height="22" fill="#7c3aed" class="level-badge" />
  <text x="95" y="581" text-anchor="middle" class="level-label">L3</text>
  <text x="150" y="581" class="desc">Services runtime (Tier 1) (3 repos)</text>
  <rect x="70" y="604" width="188" height="38" class="lib" />
  <rect x="70" y="604" width="4" height="38" fill="#facc15" rx="2" />
  <text x="164" y="622" text-anchor="middle" class="label">unified-config-interface</text>
  <circle cx="248" cy="612" r="6" fill="#facc15" stroke="#fff" stroke-width="1" />
  <text x="164" y="634" text-anchor="middle" class="ver">0.2.1</text>
  <rect x="268" y="604" width="244" height="38" class="lib" />
  <rect x="268" y="604" width="4" height="38" fill="#ef4444" rx="2" />
  <text x="390" y="622" text-anchor="middle" class="label">unified-reference-data-interface</text>
  <circle cx="502" cy="612" r="6" fill="#ef4444" stroke="#fff" stroke-width="1" />
  <text x="390" y="634" text-anchor="middle" class="ver">0.1.102</text>
  <rect x="522" y="604" width="181" height="38" class="lib" />
  <rect x="522" y="604" width="4" height="38" fill="#ef4444" rx="2" />
  <text x="612" y="622" text-anchor="middle" class="label">unified-trading-library</text>
  <circle cx="693" cy="612" r="6" fill="#ef4444" stroke="#fff" stroke-width="1" />
  <text x="612" y="634" text-anchor="middle" class="ver">0.3.191</text>
  <!-- L4: T1c + T2 libraries (reference-data, algo, feature-calculator) (3 repos) -->
  <rect x="40" y="676" width="2320" height="107" class="level-bg" />
  <rect x="55" y="684" width="80" height="22" fill="#8b5cf6" class="level-badge" />
  <text x="95" y="700" text-anchor="middle" class="level-label">L4</text>
  <text x="150" y="700" class="desc">T1c + T2 libraries (reference-data, algo, feature-calculator) (3 repos)</text>
  <rect x="70" y="723" width="174" height="38" class="lib" />
  <rect x="70" y="723" width="4" height="38" fill="#facc15" rx="2" />
  <text x="157" y="741" text-anchor="middle" class="label">execution-algo-library</text>
  <circle cx="234" cy="731" r="6" fill="#facc15" stroke="#fff" stroke-width="1" />
  <text x="157" y="753" text-anchor="middle" class="ver">0.1.6</text>
  <rect x="254" y="723" width="181" height="38" class="lib" />
  <rect x="254" y="723" width="4" height="38" fill="#facc15" rx="2" />
  <text x="344" y="741" text-anchor="middle" class="label">matching-engine-library</text>
  <circle cx="425" cy="731" r="6" fill="#facc15" stroke="#fff" stroke-width="1" />
  <text x="344" y="753" text-anchor="middle" class="ver">0.1.57</text>
  <rect x="445" y="723" width="258" height="38" class="lib" />
  <rect x="445" y="723" width="4" height="38" fill="#facc15" rx="2" />
  <text x="574" y="741" text-anchor="middle" class="label">unified-feature-calculator-library</text>
  <circle cx="693" cy="731" r="6" fill="#facc15" stroke="#fff" stroke-width="1" />
  <text x="574" y="753" text-anchor="middle" class="ver">0.2.0</text>
  <!-- L5: Core interfaces (depends on UTEI, UTL, T0) (7 repos) -->
  <rect x="40" y="795" width="2320" height="107" class="level-bg" />
  <rect x="55" y="803" width="80" height="22" fill="#ec4899" class="level-badge" />
  <text x="95" y="819" text-anchor="middle" class="level-label">L5</text>
  <text x="150" y="819" class="desc">Core interfaces (depends on UTEI, UTL, T0) (7 repos)</text>
  <rect x="70" y="842" width="167" height="38" class="lib" />
  <rect x="70" y="842" width="4" height="38" fill="#facc15" rx="2" />
  <text x="153" y="860" text-anchor="middle" class="label">unified-domain-client</text>
  <circle cx="227" cy="850" r="6" fill="#facc15" stroke="#fff" stroke-width="1" />
  <text x="153" y="872" text-anchor="middle" class="ver">0.1.76</text>
  <rect x="247" y="842" width="202" height="38" class="infra" />
  <rect x="247" y="842" width="4" height="38" fill="#ef4444" rx="2" />
  <text x="348" y="860" text-anchor="middle" class="label">unified-features-interface</text>
  <circle cx="439" cy="850" r="6" fill="#ef4444" stroke="#fff" stroke-width="1" />
  <text x="348" y="872" text-anchor="middle" class="ver">0.1.0</text>
  <rect x="459" y="842" width="188" height="38" class="lib" />
  <rect x="459" y="842" width="4" height="38" fill="#ef4444" rx="2" />
  <text x="553" y="860" text-anchor="middle" class="label">unified-market-interface</text>
  <circle cx="637" cy="850" r="6" fill="#ef4444" stroke="#fff" stroke-width="1" />
  <text x="553" y="872" text-anchor="middle" class="ver">0.3.101</text>
  <rect x="657" y="842" width="160" height="38" class="lib" />
  <rect x="657" y="842" width="4" height="38" fill="#facc15" rx="2" />
  <text x="737" y="860" text-anchor="middle" class="label">unified-ml-interface</text>
  <circle cx="807" cy="850" r="6" fill="#facc15" stroke="#fff" stroke-width="1" />
  <text x="737" y="872" text-anchor="middle" class="ver">0.1.21</text>
  <rect x="827" y="842" width="202" height="38" class="lib" />
  <rect x="827" y="842" width="4" height="38" fill="#facc15" rx="2" />
  <text x="928" y="860" text-anchor="middle" class="label">unified-position-interface</text>
  <circle cx="1019" cy="850" r="6" fill="#facc15" stroke="#fff" stroke-width="1" />
  <text x="928" y="872" text-anchor="middle" class="ver">0.1.27</text>
  <rect x="1039" y="842" width="258" height="38" class="infra" />
  <rect x="1039" y="842" width="4" height="38" fill="#facc15" rx="2" />
  <text x="1168" y="860" text-anchor="middle" class="label">unified-sports-reference-interface</text>
  <circle cx="1287" cy="850" r="6" fill="#facc15" stroke="#fff" stroke-width="1" />
  <text x="1168" y="872" text-anchor="middle" class="ver">0.1.0</text>
  <rect x="1307" y="842" width="251" height="38" class="lib" />
  <rect x="1307" y="842" width="4" height="38" fill="#facc15" rx="2" />
  <text x="1432" y="860" text-anchor="middle" class="label">unified-trade-execution-interface</text>
  <circle cx="1548" cy="850" r="6" fill="#facc15" stroke="#fff" stroke-width="1" />
  <text x="1432" y="872" text-anchor="middle" class="ver">0.1.42</text>
  <!-- L6: Execution interfaces — DeFi + sports (3 repos) -->
  <rect x="40" y="914" width="2320" height="107" class="level-bg" />
  <rect x="55" y="922" width="80" height="22" fill="#dc2626" class="level-badge" />
  <text x="95" y="938" text-anchor="middle" class="level-label">L6</text>
  <text x="150" y="938" class="desc">Execution interfaces — DeFi + sports (3 repos)</text>
  <rect x="70" y="961" width="244" height="38" class="lib" />
  <rect x="70" y="961" width="4" height="38" fill="#facc15" rx="2" />
  <text x="192" y="979" text-anchor="middle" class="label">unified-defi-execution-interface</text>
  <circle cx="304" cy="969" r="6" fill="#facc15" stroke="#fff" stroke-width="1" />
  <text x="192" y="991" text-anchor="middle" class="ver">0.1.13</text>
  <rect x="324" y="961" width="279" height="38" class="lib" />
  <rect x="324" y="961" width="4" height="38" fill="#facc15" rx="2" />
  <text x="463" y="979" text-anchor="middle" class="label">unified-feature-orchestration-library</text>
  <circle cx="593" cy="969" r="6" fill="#facc15" stroke="#fff" stroke-width="1" />
  <text x="463" y="991" text-anchor="middle" class="ver">0.1.0</text>
  <rect x="613" y="961" width="258" height="38" class="lib" />
  <rect x="613" y="961" width="4" height="38" fill="#ef4444" rx="2" />
  <text x="742" y="979" text-anchor="middle" class="label">unified-sports-execution-interface</text>
  <circle cx="861" cy="969" r="6" fill="#ef4444" stroke="#fff" stroke-width="1" />
  <text x="742" y="991" text-anchor="middle" class="ver">0.1.19</text>
  <!-- L7: Foundational service (instruments only; no service-domain-data dependency) (1 repos) -->
  <rect x="40" y="1033" width="2320" height="107" class="level-bg" />
  <rect x="55" y="1041" width="80" height="22" fill="#ea580c" class="level-badge" />
  <text x="95" y="1057" text-anchor="middle" class="level-label">L7</text>
  <text x="150" y="1057" class="desc">Foundational service (instruments only; no service-domain-data dependency) (1 repos)</text>
  <rect x="70" y="1080" width="153" height="38" class="svc" />
  <rect x="70" y="1080" width="4" height="38" fill="#ef4444" rx="2" />
  <text x="146" y="1098" text-anchor="middle" class="label">instruments-service</text>
  <circle cx="213" cy="1088" r="6" fill="#ef4444" stroke="#fff" stroke-width="1" />
  <text x="146" y="1110" text-anchor="middle" class="ver">0.1.117</text>
  <!-- L8: Services with data-flow dependencies (17 repos) -->
  <rect x="40" y="1152" width="2320" height="155" class="level-bg" />
  <rect x="55" y="1160" width="80" height="22" fill="#0891b2" class="level-badge" />
  <text x="95" y="1176" text-anchor="middle" class="level-label">L8</text>
  <text x="150" y="1176" class="desc">Services with data-flow dependencies (17 repos)</text>
  <rect x="70" y="1199" width="132" height="38" class="svc" />
  <rect x="70" y="1199" width="4" height="38" fill="#ef4444" rx="2" />
  <text x="136" y="1217" text-anchor="middle" class="label">alerting-service</text>
  <circle cx="192" cy="1207" r="6" fill="#ef4444" stroke="#fff" stroke-width="1" />
  <text x="136" y="1229" text-anchor="middle" class="ver">0.1.0</text>
  <rect x="212" y="1199" width="139" height="38" class="svc" />
  <rect x="212" y="1199" width="4" height="38" fill="#ef4444" rx="2" />
  <text x="281" y="1217" text-anchor="middle" class="label">execution-service</text>
  <circle cx="341" cy="1207" r="6" fill="#ef4444" stroke="#fff" stroke-width="1" />
  <text x="281" y="1229" text-anchor="middle" class="ver">0.1.1</text>
  <rect x="361" y="1199" width="195" height="38" class="svc" />
  <rect x="361" y="1199" width="4" height="38" fill="#facc15" rx="2" />
  <text x="458" y="1217" text-anchor="middle" class="label">features-calendar-service</text>
  <circle cx="546" cy="1207" r="6" fill="#facc15" stroke="#fff" stroke-width="1" />
  <text x="458" y="1229" text-anchor="middle" class="ver">0.2.1</text>
  <rect x="566" y="1199" width="202" height="38" class="svc" />
  <rect x="566" y="1199" width="4" height="38" fill="#ef4444" rx="2" />
  <text x="667" y="1217" text-anchor="middle" class="label">features-commodity-service</text>
  <circle cx="758" cy="1207" r="6" fill="#ef4444" stroke="#fff" stroke-width="1" />
  <text x="667" y="1229" text-anchor="middle" class="ver">0.1.0</text>
  <rect x="778" y="1199" width="251" height="38" class="svc" />
  <rect x="778" y="1199" width="4" height="38" fill="#ef4444" rx="2" />
  <text x="903" y="1217" text-anchor="middle" class="label">features-cross-instrument-service</text>
  <circle cx="1019" cy="1207" r="6" fill="#ef4444" stroke="#fff" stroke-width="1" />
  <text x="903" y="1229" text-anchor="middle" class="ver">0.1.1</text>
  <rect x="1039" y="1199" width="202" height="38" class="svc" />
  <rect x="1039" y="1199" width="4" height="38" fill="#ef4444" rx="2" />
  <text x="1140" y="1217" text-anchor="middle" class="label">features-delta-one-service</text>
  <circle cx="1231" cy="1207" r="6" fill="#ef4444" stroke="#fff" stroke-width="1" />
  <text x="1140" y="1229" text-anchor="middle" class="ver">0.2.0</text>
  <rect x="1251" y="1199" width="244" height="38" class="svc" />
  <rect x="1251" y="1199" width="4" height="38" fill="#ef4444" rx="2" />
  <text x="1373" y="1217" text-anchor="middle" class="label">features-multi-timeframe-service</text>
  <circle cx="1485" cy="1207" r="6" fill="#ef4444" stroke="#fff" stroke-width="1" />
  <text x="1373" y="1229" text-anchor="middle" class="ver">0.1.1</text>
  <rect x="1505" y="1199" width="188" height="38" class="svc" />
  <rect x="1505" y="1199" width="4" height="38" fill="#ef4444" rx="2" />
  <text x="1599" y="1217" text-anchor="middle" class="label">features-onchain-service</text>
  <circle cx="1683" cy="1207" r="6" fill="#ef4444" stroke="#fff" stroke-width="1" />
  <text x="1599" y="1229" text-anchor="middle" class="ver">0.2.0</text>
  <rect x="1703" y="1199" width="181" height="38" class="svc" />
  <rect x="1703" y="1199" width="4" height="38" fill="#facc15" rx="2" />
  <text x="1793" y="1217" text-anchor="middle" class="label">features-sports-service</text>
  <circle cx="1874" cy="1207" r="6" fill="#facc15" stroke="#fff" stroke-width="1" />
  <text x="1793" y="1229" text-anchor="middle" class="ver">0.1.0</text>
  <rect x="1894" y="1199" width="209" height="38" class="svc" />
  <rect x="1894" y="1199" width="4" height="38" fill="#ef4444" rx="2" />
  <text x="1998" y="1217" text-anchor="middle" class="label">features-volatility-service</text>
  <circle cx="2093" cy="1207" r="6" fill="#ef4444" stroke="#fff" stroke-width="1" />
  <text x="1998" y="1229" text-anchor="middle" class="ver">0.2.0</text>
  <rect x="2113" y="1199" width="230" height="38" class="svc" />
  <rect x="2113" y="1199" width="4" height="38" fill="#ef4444" rx="2" />
  <text x="2228" y="1217" text-anchor="middle" class="label">market-data-processing-service</text>
  <circle cx="2333" cy="1207" r="6" fill="#ef4444" stroke="#fff" stroke-width="1" />
  <text x="2228" y="1229" text-anchor="middle" class="ver">0.2.0</text>
  <rect x="70" y="1247" width="188" height="38" class="svc" />
  <rect x="70" y="1247" width="4" height="38" fill="#ef4444" rx="2" />
  <text x="164" y="1265" text-anchor="middle" class="label">market-tick-data-service</text>
  <circle cx="248" cy="1255" r="6" fill="#ef4444" stroke="#fff" stroke-width="1" />
  <text x="164" y="1277" text-anchor="middle" class="ver">0.3.1</text>
  <rect x="268" y="1247" width="160" height="38" class="svc" />
  <rect x="268" y="1247" width="4" height="38" fill="#facc15" rx="2" />
  <text x="348" y="1265" text-anchor="middle" class="label">ml-inference-service</text>
  <circle cx="418" cy="1255" r="6" fill="#facc15" stroke="#fff" stroke-width="1" />
  <text x="348" y="1277" text-anchor="middle" class="ver">0.1.0</text>
  <rect x="438" y="1247" width="153" height="38" class="svc" />
  <rect x="438" y="1247" width="4" height="38" fill="#facc15" rx="2" />
  <text x="514" y="1265" text-anchor="middle" class="label">ml-training-service</text>
  <circle cx="581" cy="1255" r="6" fill="#facc15" stroke="#fff" stroke-width="1" />
  <text x="514" y="1277" text-anchor="middle" class="ver">0.1.0</text>
  <rect x="601" y="1247" width="181" height="38" class="svc" />
  <rect x="601" y="1247" width="4" height="38" fill="#ef4444" rx="2" />
  <text x="691" y="1265" text-anchor="middle" class="label">pnl-attribution-service</text>
  <circle cx="772" cy="1255" r="6" fill="#ef4444" stroke="#fff" stroke-width="1" />
  <text x="691" y="1277" text-anchor="middle" class="ver">0.1.0</text>
  <rect x="792" y="1247" width="132" height="38" class="svc" />
  <rect x="792" y="1247" width="4" height="38" fill="#ef4444" rx="2" />
  <text x="858" y="1265" text-anchor="middle" class="label">strategy-service</text>
  <circle cx="914" cy="1255" r="6" fill="#ef4444" stroke="#fff" stroke-width="1" />
  <text x="858" y="1277" text-anchor="middle" class="ver">0.1.0</text>
  <rect x="934" y="1247" width="167" height="38" class="svc" />
  <rect x="934" y="1247" width="4" height="38" fill="#facc15" rx="2" />
  <text x="1017" y="1265" text-anchor="middle" class="label">trading-agent-service</text>
  <circle cx="1091" cy="1255" r="6" fill="#facc15" stroke="#fff" stroke-width="1" />
  <text x="1017" y="1277" text-anchor="middle" class="ver">0.1.0</text>
  <!-- L9: Operational services + API gateways (4 repos) -->
  <rect x="40" y="1319" width="2320" height="107" class="level-bg" />
  <rect x="55" y="1327" width="80" height="22" fill="#06b6d4" class="level-badge" />
  <text x="95" y="1343" text-anchor="middle" class="level-label">L9</text>
  <text x="150" y="1343" class="desc">Operational services + API gateways (4 repos)</text>
  <rect x="70" y="1366" width="160" height="38" class="api" />
  <rect x="70" y="1366" width="4" height="38" fill="#facc15" rx="2" />
  <text x="150" y="1384" text-anchor="middle" class="label">client-reporting-api</text>
  <circle cx="220" cy="1374" r="6" fill="#facc15" stroke="#fff" stroke-width="1" />
  <text x="150" y="1396" text-anchor="middle" class="ver">0.1.0</text>
  <rect x="240" y="1366" width="130" height="38" class="api" />
  <rect x="240" y="1366" width="4" height="38" fill="#facc15" rx="2" />
  <text x="305" y="1384" text-anchor="middle" class="label">market-data-api</text>
  <circle cx="360" cy="1374" r="6" fill="#facc15" stroke="#fff" stroke-width="1" />
  <text x="305" y="1396" text-anchor="middle" class="ver">0.1.0</text>
  <rect x="380" y="1366" width="244" height="38" class="svc" />
  <rect x="380" y="1366" width="4" height="38" fill="#ef4444" rx="2" />
  <text x="502" y="1384" text-anchor="middle" class="label">position-balance-monitor-service</text>
  <circle cx="614" cy="1374" r="6" fill="#ef4444" stroke="#fff" stroke-width="1" />
  <text x="502" y="1396" text-anchor="middle" class="ver">0.1.1</text>
  <rect x="634" y="1366" width="195" height="38" class="svc" />
  <rect x="634" y="1366" width="4" height="38" fill="#ef4444" rx="2" />
  <text x="731" y="1384" text-anchor="middle" class="label">risk-and-exposure-service</text>
  <circle cx="819" cy="1374" r="6" fill="#ef4444" stroke="#fff" stroke-width="1" />
  <text x="731" y="1396" text-anchor="middle" class="ver">0.1.0</text>
  <!-- L10: Deployment infrastructure (deployment-api, deployment-service; deploys all services) (3 repos) -->
  <rect x="40" y="1438" width="2320" height="107" class="level-bg" />
  <rect x="55" y="1446" width="80" height="22" fill="#f97316" class="level-badge" />
  <text x="95" y="1462" text-anchor="middle" class="level-label">L10</text>
  <text x="150" y="1462" class="desc">Deployment infrastructure (deployment-api, deployment-service; deploys all services) (3 repos)</text>
  <rect x="70" y="1485" width="251" height="38" class="infra" />
  <rect x="70" y="1485" width="4" height="38" fill="#facc15" rx="2" />
  <text x="195" y="1503" text-anchor="middle" class="label">batch-live-reconciliation-service</text>
  <circle cx="311" cy="1493" r="6" fill="#facc15" stroke="#fff" stroke-width="1" />
  <text x="195" y="1515" text-anchor="middle" class="ver">0.1.0</text>
  <rect x="331" y="1485" width="130" height="38" class="api" />
  <rect x="331" y="1485" width="4" height="38" fill="#facc15" rx="2" />
  <text x="396" y="1503" text-anchor="middle" class="label">deployment-api</text>
  <circle cx="451" cy="1493" r="6" fill="#facc15" stroke="#fff" stroke-width="1" />
  <text x="396" y="1515" text-anchor="middle" class="ver">0.1.1</text>
  <rect x="471" y="1485" width="146" height="38" class="infra" />
  <rect x="471" y="1485" width="4" height="38" fill="#facc15" rx="2" />
  <text x="544" y="1503" text-anchor="middle" class="label">deployment-service</text>
  <circle cx="607" cy="1493" r="6" fill="#facc15" stroke="#fff" stroke-width="1" />
  <text x="544" y="1515" text-anchor="middle" class="ver">0.1.1</text>
  <!-- L11: UI applications (2 repos) -->
  <rect x="40" y="1557" width="2320" height="107" class="level-bg" />
  <rect x="55" y="1565" width="80" height="22" fill="#a855f7" class="level-badge" />
  <text x="95" y="1581" text-anchor="middle" class="level-label">L11</text>
  <text x="150" y="1581" class="desc">UI applications (2 repos)</text>
  <rect x="70" y="1604" width="130" height="38" class="ui-box" />
  <rect x="70" y="1604" width="4" height="38" fill="#facc15" rx="2" />
  <text x="135" y="1622" text-anchor="middle" class="label">deployment-ui</text>
  <circle cx="190" cy="1612" r="6" fill="#facc15" stroke="#fff" stroke-width="1" />
  <text x="135" y="1634" text-anchor="middle" class="ver">0.1.0</text>
  <rect x="210" y="1604" width="195" height="38" class="ui-box" />
  <rect x="210" y="1604" width="4" height="38" fill="#facc15" rx="2" />
  <text x="307" y="1622" text-anchor="middle" class="label">unified-trading-system-ui</text>
  <circle cx="395" cy="1612" r="6" fill="#facc15" stroke="#fff" stroke-width="1" />
  <text x="307" y="1634" text-anchor="middle" class="ver">0.1.0</text>
  <!-- L12: IaC + post-deploy validation (deploy last; references all service images) (3 repos) -->
  <rect x="40" y="1676" width="2320" height="107" class="level-bg" />
  <rect x="55" y="1684" width="80" height="22" fill="#64748b" class="level-badge" />
  <text x="95" y="1700" text-anchor="middle" class="level-label">L12</text>
  <text x="150" y="1700" class="desc">IaC + post-deploy validation (deploy last; references all service images) (3 repos)</text>
  <rect x="70" y="1723" width="153" height="38" class="svc" />
  <rect x="70" y="1723" width="4" height="38" fill="#facc15" rx="2" />
  <text x="146" y="1741" text-anchor="middle" class="label">elysium-defi-system</text>
  <circle cx="213" cy="1731" r="6" fill="#facc15" stroke="#fff" stroke-width="1" />
  <text x="146" y="1753" text-anchor="middle" class="ver">0.1.0</text>
  <rect x="233" y="1723" width="146" height="38" class="infra" />
  <rect x="233" y="1723" width="4" height="38" fill="#facc15" rx="2" />
  <text x="306" y="1741" text-anchor="middle" class="label">ibkr-gateway-infra</text>
  <circle cx="369" cy="1731" r="6" fill="#facc15" stroke="#fff" stroke-width="1" />
  <text x="306" y="1753" text-anchor="middle" class="ver">0.1.0</text>
  <rect x="389" y="1723" width="188" height="38" class="test" />
  <rect x="389" y="1723" width="4" height="38" fill="#ef4444" rx="2" />
  <text x="483" y="1741" text-anchor="middle" class="label">system-integration-tests</text>
  <circle cx="567" cy="1731" r="6" fill="#ef4444" stroke="#fff" stroke-width="1" />
  <text x="483" y="1753" text-anchor="middle" class="ver">0.2.0</text>
  <rect x="40" y="1815" width="2320" height="90" fill="#ffffff" stroke="#e2e8f0" stroke-width="1" rx="8" />
  <text x="60" y="1840" class="section">Versioning + Summary</text>
  <text x="60" y="1860" class="small">All 0.x.x. Version 1.0.0 = first stable (GitHub Actions auto-bump on main merge). No local version bumping. CI/CD in level order.</text>
  <text x="60" y="1875" class="small">53 repos: 1 apis, 3 api-services, 1 batch-services, 1 devopss, 3 infrastructures, 2 interfaces, 18 librarys, 21 services, 1 test-harnesss, 2 uis</text>
  <text x="60" y="1890" class="small">Deployment modes: runtime-topology.yaml deployment_modes | Checklist SSOTs: checklist.template.{service,api-service,ui,library}.yaml</text>
</svg>
