<svg xmlns="http://www.w3.org/2000/svg" width="1200" height="980" viewBox="0 0 1200 980">
<defs><style>

  .bg { fill: #f8fafc; }
  .title { font: 700 22px Arial, sans-serif; fill: #0f172a; }
  .subtitle { font: 500 12px Arial, sans-serif; fill: #475569; }
  .section { font: 700 13px Arial, sans-serif; fill: #0f172a; }
  .label { font: 600 10px Arial, sans-serif; fill: #0f172a; }
  .ver { font: 500 9px Arial, sans-serif; fill: #64748b; }
  .pkg-box { fill: #e0f2fe; stroke: #0284c7; stroke-width: 1; rx: 4; }
  .footer { font: 500 10px Arial, sans-serif; fill: #64748b; }

</style></defs>
<rect class="bg" x="0" y="0" width="1200" height="980" />
<text x="40" y="32" class="title">Canonical External Dependencies</text>
<text x="40" y="50" class="subtitle">SSOT: unified-trading-pm/canonical-dependency-manifest.json. External packages only; internal repos in workspace-manifest.json.</text>
<text x="40" y="64" class="subtitle">106 packages. Generated by scripts/manifest/generate_canonical_dependency_manifest.py</text>
  <rect x="40" y="70" width="172" height="32" class="pkg-box" />
  <text x="126" y="84" text-anchor="middle" class="label">aiobotocore</text>
  <text x="126" y="96" text-anchor="middle" class="ver">aiobotocore&gt;=2.11.0,&lt;3.0.0</text>
  <rect x="220" y="70" width="160" height="32" class="pkg-box" />
  <text x="300" y="84" text-anchor="middle" class="label">aiofiles</text>
  <text x="300" y="96" text-anchor="middle" class="ver">aiofiles&gt;=24.1.0,&lt;25.0.0</text>
  <rect x="388" y="70" width="148" height="32" class="pkg-box" />
  <text x="462" y="84" text-anchor="middle" class="label">aiohttp</text>
  <text x="462" y="96" text-anchor="middle" class="ver">aiohttp&gt;=3.13.2,&lt;4.0.0</text>
  <rect x="544" y="70" width="172" height="32" class="pkg-box" />
  <text x="630" y="84" text-anchor="middle" class="label">aioresponses</text>
  <text x="630" y="96" text-anchor="middle" class="ver">aioresponses&gt;=0.7.6,&lt;1.0.0</text>
  <rect x="724" y="70" width="148" height="32" class="pkg-box" />
  <text x="798" y="84" text-anchor="middle" class="label">alembic</text>
  <text x="798" y="96" text-anchor="middle" class="ver">alembic&gt;=1.13.0,&lt;2.0.0</text>
  <rect x="880" y="70" width="160" height="32" class="pkg-box" />
  <text x="960" y="84" text-anchor="middle" class="label">anthropic</text>
  <text x="960" y="96" text-anchor="middle" class="ver">anthropic&gt;=0.49.0,&lt;1.0.0</text>
  <rect x="40" y="116" width="178" height="32" class="pkg-box" />
  <text x="129" y="130" text-anchor="middle" class="label">asyncio_mqtt</text>
  <text x="129" y="142" text-anchor="middle" class="ver">asyncio-mqtt&gt;=0.16.1,&lt;1.0.0</text>
  <rect x="226" y="116" width="196" height="32" class="pkg-box" />
  <text x="324" y="130" text-anchor="middle" class="label">asyncio_throttle</text>
  <text x="324" y="142" text-anchor="middle" class="ver">asyncio-throttle&gt;=1.0.0,&lt;...</text>
  <rect x="430" y="116" width="154" height="32" class="pkg-box" />
  <text x="507" y="130" text-anchor="middle" class="label">asyncpg</text>
  <text x="507" y="142" text-anchor="middle" class="ver">asyncpg&gt;=0.31.0,&lt;0.32.0</text>
  <rect x="592" y="116" width="136" height="32" class="pkg-box" />
  <text x="660" y="130" text-anchor="middle" class="label">bandit</text>
  <text x="660" y="142" text-anchor="middle" class="ver">bandit&gt;=1.7.0,&lt;2.0.0</text>
  <rect x="736" y="116" width="136" height="32" class="pkg-box" />
  <text x="804" y="130" text-anchor="middle" class="label">basedpyright</text>
  <text x="804" y="142" text-anchor="middle" class="ver">basedpyright==1.38.2</text>
  <rect x="880" y="116" width="166" height="32" class="pkg-box" />
  <text x="963" y="130" text-anchor="middle" class="label">beautifulsoup4</text>
  <text x="963" y="142" text-anchor="middle" class="ver">beautifulsoup4&gt;=4.12,&lt;5.0</text>
  <rect x="40" y="162" width="190" height="32" class="pkg-box" />
  <text x="135" y="176" text-anchor="middle" class="label">betfairlightweight</text>
  <text x="135" y="188" text-anchor="middle" class="ver">betfairlightweight&gt;=2.20,...</text>
  <rect x="238" y="162" width="220" height="32" class="pkg-box" />
  <text x="348" y="176" text-anchor="middle" class="label">binance_futures_connector</text>
  <text x="348" y="188" text-anchor="middle" class="ver">binance-futures-connector...</text>
  <rect x="466" y="162" width="142" height="32" class="pkg-box" />
  <text x="537" y="176" text-anchor="middle" class="label">boto3</text>
  <text x="537" y="188" text-anchor="middle" class="ver">boto3&gt;=1.40.70,&lt;2.0.0</text>
  <rect x="616" y="162" width="220" height="32" class="pkg-box" />
  <text x="726" y="176" text-anchor="middle" class="label">boto3-stubs[s3,secretsmanager]</text>
  <text x="726" y="188" text-anchor="middle" class="ver">boto3-stubs[s3,secretsman...</text>
  <rect x="844" y="162" width="154" height="32" class="pkg-box" />
  <text x="921" y="176" text-anchor="middle" class="label">botocore</text>
  <text x="921" y="188" text-anchor="middle" class="ver">botocore&gt;=1.34.0,&lt;2.0.0</text>
  <rect x="40" y="208" width="160" height="32" class="pkg-box" />
  <text x="120" y="222" text-anchor="middle" class="label">cachetools</text>
  <text x="120" y="234" text-anchor="middle" class="ver">cachetools&gt;=5.0.0,&lt;6.0.0</text>
  <rect x="208" y="208" width="130" height="32" class="pkg-box" />
  <text x="273" y="222" text-anchor="middle" class="label">ccxt</text>
  <text x="273" y="234" text-anchor="middle" class="ver">ccxt&gt;=4.5.24,&lt;5.0.0</text>
  <rect x="346" y="208" width="130" height="32" class="pkg-box" />
  <text x="411" y="222" text-anchor="middle" class="label">click</text>
  <text x="411" y="234" text-anchor="middle" class="ver">click&gt;=8.3.1,&lt;9.0.0</text>
  <rect x="484" y="208" width="160" height="32" class="pkg-box" />
  <text x="564" y="222" text-anchor="middle" class="label">databento</text>
  <text x="564" y="234" text-anchor="middle" class="ver">databento&gt;=0.32.0,&lt;1.0.0</text>
  <rect x="652" y="208" width="154" height="32" class="pkg-box" />
  <text x="729" y="222" text-anchor="middle" class="label">db_dtypes</text>
  <text x="729" y="234" text-anchor="middle" class="ver">db-dtypes&gt;=1.5.0,&lt;2.0.0</text>
  <rect x="814" y="208" width="136" height="32" class="pkg-box" />
  <text x="882" y="222" text-anchor="middle" class="label">docker</text>
  <text x="882" y="234" text-anchor="middle" class="ver">docker&gt;=7.1.0,&lt;8.0.0</text>
  <rect x="958" y="208" width="142" height="32" class="pkg-box" />
  <text x="1029" y="222" text-anchor="middle" class="label">eth_abi</text>
  <text x="1029" y="234" text-anchor="middle" class="ver">eth-abi&gt;=5.0.1,&lt;6.0.0</text>
  <rect x="40" y="254" width="208" height="32" class="pkg-box" />
  <text x="144" y="268" text-anchor="middle" class="label">exchange_calendars</text>
  <text x="144" y="280" text-anchor="middle" class="ver">exchange-calendars&gt;=4.5.0...</text>
  <rect x="256" y="254" width="154" height="32" class="pkg-box" />
  <text x="333" y="268" text-anchor="middle" class="label">fastapi</text>
  <text x="333" y="280" text-anchor="middle" class="ver">fastapi&gt;=0.110.0,&lt;1.0.0</text>
  <rect x="418" y="254" width="166" height="32" class="pkg-box" />
  <text x="501" y="268" text-anchor="middle" class="label">fastparquet</text>
  <text x="501" y="280" text-anchor="middle" class="ver">fastparquet&gt;=0.8.0,&lt;1.0.0</text>
  <rect x="592" y="254" width="154" height="32" class="pkg-box" />
  <text x="669" y="268" text-anchor="middle" class="label">freezegun</text>
  <text x="669" y="280" text-anchor="middle" class="ver">freezegun&gt;=1.2.2,&lt;2.0.0</text>
  <rect x="754" y="254" width="172" height="32" class="pkg-box" />
  <text x="840" y="268" text-anchor="middle" class="label">fsspec</text>
  <text x="840" y="280" text-anchor="middle" class="ver">fsspec&gt;=2025.2.0,&lt;2026.0.0</text>
  <rect x="40" y="300" width="214" height="32" class="pkg-box" />
  <text x="147" y="314" text-anchor="middle" class="label">gcloud_aio_storage</text>
  <text x="147" y="326" text-anchor="middle" class="ver">gcloud-aio-storage&gt;=9.0.0...</text>
  <rect x="262" y="300" width="220" height="32" class="pkg-box" />
  <text x="372" y="314" text-anchor="middle" class="label">google_api_python_client</text>
  <text x="372" y="326" text-anchor="middle" class="ver">google-api-python-client&gt;...</text>
  <rect x="490" y="300" width="172" height="32" class="pkg-box" />
  <text x="576" y="314" text-anchor="middle" class="label">google_auth</text>
  <text x="576" y="326" text-anchor="middle" class="ver">google-auth&gt;=2.40.0,&lt;3.0.0</text>
  <rect x="670" y="300" width="208" height="32" class="pkg-box" />
  <text x="774" y="314" text-anchor="middle" class="label">google_cloud_build</text>
  <text x="774" y="326" text-anchor="middle" class="ver">google-cloud-build&gt;=3.0.0...</text>
  <rect x="886" y="300" width="220" height="32" class="pkg-box" />
  <text x="996" y="314" text-anchor="middle" class="label">google_cloud_compute</text>
  <text x="996" y="326" text-anchor="middle" class="ver">google-cloud-compute&gt;=1.4...</text>
  <rect x="40" y="346" width="220" height="32" class="pkg-box" />
  <text x="150" y="360" text-anchor="middle" class="label">google_cloud_pubsub</text>
  <text x="150" y="372" text-anchor="middle" class="ver">google-cloud-pubsub&gt;=2.28...</text>
  <rect x="268" y="346" width="202" height="32" class="pkg-box" />
  <text x="369" y="360" text-anchor="middle" class="label">google_cloud_run</text>
  <text x="369" y="372" text-anchor="middle" class="ver">google-cloud-run&gt;=0.15.0,...</text>
  <rect x="478" y="346" width="220" height="32" class="pkg-box" />
  <text x="588" y="360" text-anchor="middle" class="label">google_cloud_secret_manager</text>
  <text x="588" y="372" text-anchor="middle" class="ver">google-cloud-secret-manag...</text>
  <rect x="706" y="346" width="220" height="32" class="pkg-box" />
  <text x="816" y="360" text-anchor="middle" class="label">google_cloud_storage</text>
  <text x="816" y="372" text-anchor="middle" class="ver">google-cloud-storage&gt;=3.8...</text>
  <rect x="934" y="346" width="148" height="32" class="pkg-box" />
  <text x="1008" y="360" text-anchor="middle" class="label">greenlet</text>
  <text x="1008" y="372" text-anchor="middle" class="ver">greenlet&gt;=3.0.0,&lt;4.0.0</text>
  <rect x="40" y="392" width="160" height="32" class="pkg-box" />
  <text x="120" y="406" text-anchor="middle" class="label">gunicorn</text>
  <text x="120" y="418" text-anchor="middle" class="ver">gunicorn&gt;=22.0.0,&lt;23.0.0</text>
  <rect x="208" y="392" width="148" height="32" class="pkg-box" />
  <text x="282" y="406" text-anchor="middle" class="label">hmmlearn</text>
  <text x="282" y="418" text-anchor="middle" class="ver">hmmlearn&gt;=0.3.0,&lt;1.0.0</text>
  <rect x="364" y="392" width="136" height="32" class="pkg-box" />
  <text x="432" y="406" text-anchor="middle" class="label">httpx</text>
  <text x="432" y="418" text-anchor="middle" class="ver">httpx&gt;=0.28.1,&lt;1.0.0</text>
  <rect x="508" y="392" width="160" height="32" class="pkg-box" />
  <text x="588" y="406" text-anchor="middle" class="label">hypothesis</text>
  <text x="588" y="418" text-anchor="middle" class="ver">hypothesis&gt;=6.0.0,&lt;7.0.0</text>
  <rect x="676" y="392" width="160" height="32" class="pkg-box" />
  <text x="756" y="406" text-anchor="middle" class="label">ib_insync</text>
  <text x="756" y="418" text-anchor="middle" class="ver">ib_insync&gt;=0.9.86,&lt;1.0.0</text>
  <rect x="844" y="392" width="136" height="32" class="pkg-box" />
  <text x="912" y="406" text-anchor="middle" class="label">jinja2</text>
  <text x="912" y="418" text-anchor="middle" class="ver">jinja2&gt;=3.0.0,&lt;4.0.0</text>
  <rect x="988" y="392" width="136" height="32" class="pkg-box" />
  <text x="1056" y="406" text-anchor="middle" class="label">joblib</text>
  <text x="1056" y="418" text-anchor="middle" class="ver">joblib&gt;=1.3.0,&lt;2.0.0</text>
  <rect x="40" y="438" width="160" height="32" class="pkg-box" />
  <text x="120" y="452" text-anchor="middle" class="label">jsonpickle</text>
  <text x="120" y="464" text-anchor="middle" class="ver">jsonpickle&gt;=3.0.0,&lt;4.0.0</text>
  <rect x="208" y="438" width="148" height="32" class="pkg-box" />
  <text x="282" y="452" text-anchor="middle" class="label">lightgbm</text>
  <text x="282" y="464" text-anchor="middle" class="ver">lightgbm&gt;=4.0.0,&lt;5.0.0</text>
  <rect x="364" y="438" width="100" height="32" class="pkg-box" />
  <text x="414" y="452" text-anchor="middle" class="label">lxml</text>
  <text x="414" y="464" text-anchor="middle" class="ver">lxml&gt;=5.0,&lt;6.0</text>
  <rect x="472" y="438" width="118" height="32" class="pkg-box" />
  <text x="531" y="452" text-anchor="middle" class="label">lz4</text>
  <text x="531" y="464" text-anchor="middle" class="ver">lz4&gt;=4.3.0,&lt;5.0.0</text>
  <rect x="598" y="438" width="160" height="32" class="pkg-box" />
  <text x="678" y="452" text-anchor="middle" class="label">matplotlib</text>
  <text x="678" y="464" text-anchor="middle" class="ver">matplotlib&gt;=3.9.0,&lt;4.0.0</text>
  <rect x="766" y="438" width="130" height="32" class="pkg-box" />
  <text x="831" y="452" text-anchor="middle" class="label">mypy</text>
  <text x="831" y="464" text-anchor="middle" class="ver">mypy&gt;=1.13.0,&lt;2.0.0</text>
  <rect x="904" y="438" width="202" height="32" class="pkg-box" />
  <text x="1005" y="452" text-anchor="middle" class="label">nautilus_trader</text>
  <text x="1005" y="464" text-anchor="middle" class="ver">nautilus-trader&gt;=1.221.0,...</text>
  <rect x="40" y="484" width="136" height="32" class="pkg-box" />
  <text x="108" y="498" text-anchor="middle" class="label">numba</text>
  <text x="108" y="510" text-anchor="middle" class="ver">numba&gt;=0.62.1,&lt;1.0.0</text>
  <rect x="184" y="484" width="130" height="32" class="pkg-box" />
  <text x="249" y="498" text-anchor="middle" class="label">numpy</text>
  <text x="249" y="510" text-anchor="middle" class="ver">numpy&gt;=2.3.0,&lt;2.4.0</text>
  <rect x="322" y="484" width="136" height="32" class="pkg-box" />
  <text x="390" y="498" text-anchor="middle" class="label">pandas</text>
  <text x="390" y="510" text-anchor="middle" class="ver">pandas&gt;=2.3.0,&lt;3.0.0</text>
  <rect x="466" y="484" width="166" height="32" class="pkg-box" />
  <text x="549" y="498" text-anchor="middle" class="label">pandas_gbq</text>
  <text x="549" y="510" text-anchor="middle" class="ver">pandas-gbq&gt;=0.19.0,&lt;1.0.0</text>
  <rect x="640" y="484" width="172" height="32" class="pkg-box" />
  <text x="726" y="498" text-anchor="middle" class="label">pandas_stubs</text>
  <text x="726" y="510" text-anchor="middle" class="ver">pandas-stubs&gt;=2.2.0,&lt;3.0.0</text>
  <rect x="820" y="484" width="154" height="32" class="pkg-box" />
  <text x="897" y="498" text-anchor="middle" class="label">pip_audit</text>
  <text x="897" y="510" text-anchor="middle" class="ver">pip-audit&gt;=2.7.0,&lt;3.0.0</text>
  <rect x="982" y="484" width="142" height="32" class="pkg-box" />
  <text x="1053" y="498" text-anchor="middle" class="label">playwright</text>
  <text x="1053" y="510" text-anchor="middle" class="ver">playwright&gt;=1.40,&lt;2.0</text>
  <rect x="40" y="530" width="136" height="32" class="pkg-box" />
  <text x="108" y="544" text-anchor="middle" class="label">plotly</text>
  <text x="108" y="556" text-anchor="middle" class="ver">plotly&gt;=6.4.0,&lt;7.0.0</text>
  <rect x="184" y="530" width="142" height="32" class="pkg-box" />
  <text x="255" y="544" text-anchor="middle" class="label">polars</text>
  <text x="255" y="556" text-anchor="middle" class="ver">polars&gt;=1.37.0,&lt;2.0.0</text>
  <rect x="334" y="530" width="148" height="32" class="pkg-box" />
  <text x="408" y="544" text-anchor="middle" class="label">pre_commit</text>
  <text x="408" y="556" text-anchor="middle" class="ver">pre-commit&gt;=3.0,&lt;4.0.0</text>
  <rect x="490" y="530" width="124" height="32" class="pkg-box" />
  <text x="552" y="544" text-anchor="middle" class="label">prek</text>
  <text x="552" y="556" text-anchor="middle" class="ver">prek&gt;=0.3.0,&lt;1.0.0</text>
  <rect x="622" y="530" width="208" height="32" class="pkg-box" />
  <text x="726" y="544" text-anchor="middle" class="label">prometheus_client</text>
  <text x="726" y="556" text-anchor="middle" class="ver">prometheus-client&gt;=0.20.0...</text>
  <rect x="838" y="530" width="190" height="32" class="pkg-box" />
  <text x="933" y="544" text-anchor="middle" class="label">psycopg2_binary</text>
  <text x="933" y="556" text-anchor="middle" class="ver">psycopg2-binary&gt;=2.9.9,&lt;3...</text>
  <rect x="40" y="576" width="154" height="32" class="pkg-box" />
  <text x="117" y="590" text-anchor="middle" class="label">pyarrow</text>
  <text x="117" y="602" text-anchor="middle" class="ver">pyarrow&gt;=23.0.0,&lt;24.0.0</text>
  <rect x="202" y="576" width="154" height="32" class="pkg-box" />
  <text x="279" y="590" text-anchor="middle" class="label">pydantic</text>
  <text x="279" y="602" text-anchor="middle" class="ver">pydantic&gt;=2.12.5,&lt;3.0.0</text>
  <rect x="364" y="576" width="208" height="32" class="pkg-box" />
  <text x="468" y="590" text-anchor="middle" class="label">pydantic_settings</text>
  <text x="468" y="602" text-anchor="middle" class="ver">pydantic-settings&gt;=2.12.0...</text>
  <rect x="580" y="576" width="154" height="32" class="pkg-box" />
  <text x="657" y="590" text-anchor="middle" class="label">pyright</text>
  <text x="657" y="602" text-anchor="middle" class="ver">pyright&gt;=1.1.390,&lt;2.0.0</text>
  <rect x="742" y="576" width="142" height="32" class="pkg-box" />
  <text x="813" y="590" text-anchor="middle" class="label">pytest</text>
  <text x="813" y="602" text-anchor="middle" class="ver">pytest&gt;=9.0.1,&lt;10.0.0</text>
  <rect x="892" y="576" width="190" height="32" class="pkg-box" />
  <text x="987" y="590" text-anchor="middle" class="label">pytest_asyncio</text>
  <text x="987" y="602" text-anchor="middle" class="ver">pytest-asyncio&gt;=0.25.0,&lt;2...</text>
  <rect x="40" y="622" width="196" height="32" class="pkg-box" />
  <text x="138" y="636" text-anchor="middle" class="label">pytest_benchmark</text>
  <text x="138" y="648" text-anchor="middle" class="ver">pytest-benchmark&gt;=4.0.0,&lt;...</text>
  <rect x="244" y="622" width="160" height="32" class="pkg-box" />
  <text x="324" y="636" text-anchor="middle" class="label">pytest_cov</text>
  <text x="324" y="648" text-anchor="middle" class="ver">pytest-cov&gt;=7.0.0,&lt;8.0.0</text>
  <rect x="412" y="622" width="172" height="32" class="pkg-box" />
  <text x="498" y="636" text-anchor="middle" class="label">pytest_mock</text>
  <text x="498" y="648" text-anchor="middle" class="ver">pytest-mock&gt;=3.15.0,&lt;4.0.0</text>
  <rect x="592" y="622" width="184" height="32" class="pkg-box" />
  <text x="684" y="636" text-anchor="middle" class="label">pytest_timeout</text>
  <text x="684" y="648" text-anchor="middle" class="ver">pytest-timeout&gt;=2.4.0,&lt;3.0.0</text>
  <rect x="784" y="622" width="172" height="32" class="pkg-box" />
  <text x="870" y="636" text-anchor="middle" class="label">pytest_xdist</text>
  <text x="870" y="648" text-anchor="middle" class="ver">pytest-xdist&gt;=3.6.0,&lt;4.0.0</text>
  <rect x="40" y="668" width="190" height="32" class="pkg-box" />
  <text x="135" y="682" text-anchor="middle" class="label">python_dateutil</text>
  <text x="135" y="694" text-anchor="middle" class="ver">python-dateutil&gt;=2.8.2,&lt;3...</text>
  <rect x="238" y="668" width="178" height="32" class="pkg-box" />
  <text x="327" y="682" text-anchor="middle" class="label">python_dotenv</text>
  <text x="327" y="694" text-anchor="middle" class="ver">python-dotenv&gt;=1.0.0,&lt;2.0.0</text>
  <rect x="424" y="668" width="196" height="32" class="pkg-box" />
  <text x="522" y="682" text-anchor="middle" class="label">python_multipart</text>
  <text x="522" y="694" text-anchor="middle" class="ver">python-multipart&gt;=0.0.9,&lt;...</text>
  <rect x="628" y="668" width="136" height="32" class="pkg-box" />
  <text x="696" y="682" text-anchor="middle" class="label">pytz</text>
  <text x="696" y="694" text-anchor="middle" class="ver">pytz&gt;=2024.1,&lt;2026.0</text>
  <rect x="772" y="668" width="136" height="32" class="pkg-box" />
  <text x="840" y="682" text-anchor="middle" class="label">pyyaml</text>
  <text x="840" y="694" text-anchor="middle" class="ver">pyyaml&gt;=6.0.1,&lt;7.0.0</text>
  <rect x="916" y="668" width="154" height="32" class="pkg-box" />
  <text x="993" y="682" text-anchor="middle" class="label">requests</text>
  <text x="993" y="694" text-anchor="middle" class="ver">requests&gt;=2.32.5,&lt;3.0.0</text>
  <rect x="40" y="714" width="160" height="32" class="pkg-box" />
  <text x="120" y="728" text-anchor="middle" class="label">responses</text>
  <text x="120" y="740" text-anchor="middle" class="ver">responses&gt;=0.24.1,&lt;1.0.0</text>
  <rect x="208" y="714" width="136" height="32" class="pkg-box" />
  <text x="276" y="728" text-anchor="middle" class="label">rich</text>
  <text x="276" y="740" text-anchor="middle" class="ver">rich&gt;=14.2.0,&lt;15.0.0</text>
  <rect x="352" y="714" width="100" height="32" class="pkg-box" />
  <text x="402" y="728" text-anchor="middle" class="label">ruff</text>
  <text x="402" y="740" text-anchor="middle" class="ver">ruff==0.15.0</text>
  <rect x="460" y="714" width="148" height="32" class="pkg-box" />
  <text x="534" y="728" text-anchor="middle" class="label">ruptures</text>
  <text x="534" y="740" text-anchor="middle" class="ver">ruptures&gt;=1.1.0,&lt;2.0.0</text>
  <rect x="616" y="714" width="172" height="32" class="pkg-box" />
  <text x="702" y="728" text-anchor="middle" class="label">scikit_learn</text>
  <text x="702" y="740" text-anchor="middle" class="ver">scikit-learn&gt;=1.5.0,&lt;2.0.0</text>
  <rect x="796" y="714" width="136" height="32" class="pkg-box" />
  <text x="864" y="728" text-anchor="middle" class="label">scipy</text>
  <text x="864" y="740" text-anchor="middle" class="ver">scipy&gt;=1.14.0,&lt;2.0.0</text>
  <rect x="940" y="714" width="190" height="32" class="pkg-box" />
  <text x="1035" y="728" text-anchor="middle" class="label">shellcheck_py</text>
  <text x="1035" y="740" text-anchor="middle" class="ver">shellcheck-py&gt;=0.9.0.6,&lt;1...</text>
  <rect x="40" y="760" width="142" height="32" class="pkg-box" />
  <text x="111" y="774" text-anchor="middle" class="label">slowapi</text>
  <text x="111" y="786" text-anchor="middle" class="ver">slowapi&gt;=0.1.9,&lt;1.0.0</text>
  <rect x="190" y="760" width="160" height="32" class="pkg-box" />
  <text x="270" y="774" text-anchor="middle" class="label">sqlalchemy</text>
  <text x="270" y="786" text-anchor="middle" class="ver">sqlalchemy&gt;=2.0.0,&lt;3.0.0</text>
  <rect x="358" y="760" width="178" height="32" class="pkg-box" />
  <text x="447" y="774" text-anchor="middle" class="label">sse_starlette</text>
  <text x="447" y="786" text-anchor="middle" class="ver">sse-starlette&gt;=1.6.1,&lt;2.0.0</text>
  <rect x="544" y="760" width="166" height="32" class="pkg-box" />
  <text x="627" y="774" text-anchor="middle" class="label">structlog</text>
  <text x="627" y="786" text-anchor="middle" class="ver">structlog&gt;=25.5.0,&lt;26.0.0</text>
  <rect x="718" y="760" width="136" height="32" class="pkg-box" />
  <text x="786" y="774" text-anchor="middle" class="label">ta_lib</text>
  <text x="786" y="786" text-anchor="middle" class="ver">ta-lib&gt;=0.6.8,&lt;1.0.0</text>
  <rect x="862" y="760" width="178" height="32" class="pkg-box" />
  <text x="951" y="774" text-anchor="middle" class="label">tardis_client</text>
  <text x="951" y="786" text-anchor="middle" class="ver">tardis-client&gt;=1.3.7,&lt;2.0.0</text>
  <rect x="40" y="806" width="148" height="32" class="pkg-box" />
  <text x="114" y="820" text-anchor="middle" class="label">tenacity</text>
  <text x="114" y="832" text-anchor="middle" class="ver">tenacity&gt;=8.0.0,&lt;9.0.0</text>
  <rect x="196" y="806" width="130" height="32" class="pkg-box" />
  <text x="261" y="820" text-anchor="middle" class="label">tqdm</text>
  <text x="261" y="832" text-anchor="middle" class="ver">tqdm&gt;=4.66.0,&lt;5.0.0</text>
  <rect x="334" y="806" width="130" height="32" class="pkg-box" />
  <text x="399" y="820" text-anchor="middle" class="label">typer</text>
  <text x="399" y="832" text-anchor="middle" class="ver">typer&gt;=0.9.0,&lt;1.0.0</text>
  <rect x="472" y="806" width="190" height="32" class="pkg-box" />
  <text x="567" y="820" text-anchor="middle" class="label">types_requests</text>
  <text x="567" y="832" text-anchor="middle" class="ver">types-requests&gt;=2.32.0,&lt;3...</text>
  <rect x="670" y="806" width="208" height="32" class="pkg-box" />
  <text x="774" y="820" text-anchor="middle" class="label">uvicorn[standard]</text>
  <text x="774" y="832" text-anchor="middle" class="ver">uvicorn[standard]&gt;=0.27.0...</text>
  <rect x="886" y="806" width="130" height="32" class="pkg-box" />
  <text x="951" y="820" text-anchor="middle" class="label">vcrpy</text>
  <text x="951" y="832" text-anchor="middle" class="ver">vcrpy&gt;=8.0.0,&lt;9.0.0</text>
  <rect x="40" y="852" width="124" height="32" class="pkg-box" />
  <text x="102" y="866" text-anchor="middle" class="label">web3</text>
  <text x="102" y="878" text-anchor="middle" class="ver">web3&gt;=6.0.0,&lt;7.0.0</text>
  <rect x="172" y="852" width="160" height="32" class="pkg-box" />
  <text x="252" y="866" text-anchor="middle" class="label">websockets</text>
  <text x="252" y="878" text-anchor="middle" class="ver">websockets&gt;=14.0,&lt;15.0.0</text>
  <rect x="340" y="852" width="154" height="32" class="pkg-box" />
  <text x="417" y="866" text-anchor="middle" class="label">yfinance</text>
  <text x="417" y="878" text-anchor="middle" class="ver">yfinance&gt;=0.2.66,&lt;1.0.0</text>
  <rect x="502" y="852" width="160" height="32" class="pkg-box" />
  <text x="582" y="866" text-anchor="middle" class="label">zstandard</text>
  <text x="582" y="878" text-anchor="middle" class="ver">zstandard&gt;=0.22.0,&lt;1.0.0</text>
<text x="40" y="918" class="footer">Pin new external deps to these ranges. See 06-coding-standards/dependency-management.md and cursor rule canonical-external-deps.mdc.</text>
</svg>
