<svg xmlns="http://www.w3.org/2000/svg" width="1400" height="1238" viewBox="0 0 1400 1238">
  <defs>
    <marker id="arrowhead" markerWidth="10" markerHeight="7" refX="9" refY="3.5" orient="auto">
      <polygon points="0 0, 10 3.5, 0 7" fill="#94a3b8" />
    </marker>
    <style>

      .bg { fill: #fafbfc; }
      .title { font: 700 22px Arial, sans-serif; fill: #0f172a; }
      .subtitle { font: 500 12px Arial, sans-serif; fill: #475569; }
      .section { font: 700 14px Arial, sans-serif; fill: #0f172a; }
      .mode-batch { fill: #0ea5e9; }
      .mode-live { fill: #22c55e; }
      .label { font: 600 11px Arial, sans-serif; fill: #0f172a; }
      .small { font: 500 10px Arial, sans-serif; fill: #64748b; }
      .svc { fill: #fce7f3; stroke: #db2777; stroke-width: 1.2; rx: 6; }
      .api { fill: #f3e8ff; stroke: #7c3aed; stroke-width: 1.2; rx: 6; }
      .ui-box { fill: #ecfeff; stroke: #06b6d4; stroke-width: 1.2; rx: 6; }
      .flow-bg { fill: #ffffff; stroke: #e2e8f0; stroke-width: 1; rx: 8; }
      .arrow { fill: none; stroke: #94a3b8; stroke-width: 2; marker-end: url(#arrowhead); }

    </style>
  </defs>
  <rect class="bg" x="0" y="0" width="1400" height="1238" />
  <text x="40" y="32" class="title">Data Flow: Service → API → UI</text>
  <text x="40" y="50" class="subtitle">SSOT: data-flow-manifest.json. Batch (GCS) and Live (Pub/Sub). Generated by scripts/manifest/generate_data_flow_dag.py</text>
  <text x="40" y="64" class="subtitle">Domain data flows from services via APIs (or direct) to UIs.</text>
  <rect x="50" y="70" width="1300" height="32" fill="#f8fafc" stroke="#e2e8f0" rx="6" />
  <text x="62" y="92" class="section">BATCH flows</text>
  <rect x="401" y="102" width="181" height="36" class="svc" />
  <text x="491" y="124" text-anchor="middle" class="label">pnl-attribution-service</text>
  <line x1="582" y1="120" x2="622" y2="120" class="arrow" />
  <rect x="634" y="102" width="160" height="36" class="api" />
  <text x="714" y="124" text-anchor="middle" class="label">client-reporting-api</text>
  <line x1="794" y1="120" x2="834" y2="120" class="arrow" />
  <rect x="846" y="102" width="153" height="36" class="ui-box" />
  <text x="922" y="124" text-anchor="middle" class="label">client-reporting-ui</text>
  <rect x="408" y="154" width="139" height="36" class="svc" />
  <text x="477" y="176" text-anchor="middle" class="label">execution-service</text>
  <line x1="547" y1="172" x2="587" y2="172" class="arrow" />
  <rect x="599" y="154" width="167" height="36" class="api" />
  <text x="682" y="176" text-anchor="middle" class="label">execution-results-api</text>
  <line x1="766" y1="172" x2="806" y2="172" class="arrow" />
  <rect x="818" y="154" width="174" height="36" class="ui-box" />
  <text x="905" y="176" text-anchor="middle" class="label">execution-analytics-ui</text>
  <rect x="305" y="206" width="230" height="36" class="svc" />
  <text x="420" y="228" text-anchor="middle" class="label">market-data-processing-service</text>
  <line x1="535" y1="224" x2="575" y2="224" class="arrow" />
  <rect x="587" y="206" width="125" height="36" class="api" />
  <text x="649" y="228" text-anchor="middle" class="label">market-data-api</text>
  <line x1="712" y1="224" x2="752" y2="224" class="arrow" />
  <rect x="764" y="206" width="160" height="36" class="ui-box" />
  <text x="844" y="228" text-anchor="middle" class="label">trading-analytics-ui</text>
  <line x1="924" y1="224" x2="964" y2="224" class="arrow" />
  <rect x="976" y="206" width="118" height="36" class="ui-box" />
  <text x="1035" y="228" text-anchor="middle" class="label">batch-audit-ui</text>
  <rect x="305" y="258" width="251" height="36" class="svc" />
  <text x="430" y="280" text-anchor="middle" class="label">batch-live-reconciliation-service</text>
  <line x1="556" y1="276" x2="596" y2="276" class="arrow" />
  <rect x="608" y="258" width="125" height="36" class="api" />
  <text x="670" y="280" text-anchor="middle" class="label">batch-audit-api</text>
  <line x1="733" y1="276" x2="773" y2="276" class="arrow" />
  <rect x="785" y="258" width="118" height="36" class="ui-box" />
  <text x="844" y="280" text-anchor="middle" class="label">batch-audit-ui</text>
  <line x1="903" y1="276" x2="943" y2="276" class="arrow" />
  <rect x="955" y="258" width="139" height="36" class="ui-box" />
  <text x="1024" y="280" text-anchor="middle" class="label">logs-dashboard-ui</text>
  <rect x="443" y="310" width="160" height="36" class="svc" />
  <text x="523" y="332" text-anchor="middle" class="label">ml-inference-service</text>
  <line x1="603" y1="328" x2="643" y2="328" class="arrow" />
  <rect x="655" y="310" width="132" height="36" class="api" />
  <text x="721" y="332" text-anchor="middle" class="label">ml-inference-api</text>
  <line x1="787" y1="328" x2="827" y2="328" class="arrow" />
  <rect x="839" y="310" width="118" height="36" class="ui-box" />
  <text x="898" y="332" text-anchor="middle" class="label">ml-training-ui</text>
  <rect x="450" y="362" width="153" height="36" class="svc" />
  <text x="526" y="384" text-anchor="middle" class="label">ml-training-service</text>
  <line x1="603" y1="380" x2="643" y2="380" class="arrow" />
  <rect x="655" y="362" width="125" height="36" class="api" />
  <text x="717" y="384" text-anchor="middle" class="label">ml-training-api</text>
  <line x1="780" y1="380" x2="820" y2="380" class="arrow" />
  <rect x="832" y="362" width="118" height="36" class="ui-box" />
  <text x="891" y="384" text-anchor="middle" class="label">ml-training-ui</text>
  <rect x="415" y="414" width="139" height="36" class="svc" />
  <text x="484" y="436" text-anchor="middle" class="label">execution-service</text>
  <line x1="554" y1="432" x2="594" y2="432" class="arrow" />
  <rect x="606" y="414" width="167" height="36" class="api" />
  <text x="689" y="436" text-anchor="middle" class="label">trading-analytics-api</text>
  <line x1="773" y1="432" x2="813" y2="432" class="arrow" />
  <rect x="825" y="414" width="160" height="36" class="ui-box" />
  <text x="905" y="436" text-anchor="middle" class="label">trading-analytics-ui</text>
  <rect x="558" y="466" width="132" height="36" class="svc" />
  <text x="624" y="488" text-anchor="middle" class="label">strategy-service</text>
  <line x1="690" y1="484" x2="730" y2="484" class="arrow" />
  <rect x="742" y="466" width="100" height="36" class="ui-box" />
  <text x="792" y="488" text-anchor="middle" class="label">strategy-ui</text>
  <rect x="411" y="518" width="244" height="36" class="svc" />
  <text x="533" y="540" text-anchor="middle" class="label">position-balance-monitor-service</text>
  <line x1="655" y1="536" x2="695" y2="536" class="arrow" />
  <rect x="707" y="518" width="118" height="36" class="api" />
  <text x="766" y="540" text-anchor="middle" class="label">settlement-api</text>
  <line x1="825" y1="536" x2="865" y2="536" class="arrow" />
  <rect x="877" y="518" width="111" height="36" class="ui-box" />
  <text x="932" y="540" text-anchor="middle" class="label">settlement-ui</text>
  <rect x="50" y="594" width="1300" height="32" fill="#f8fafc" stroke="#e2e8f0" rx="6" />
  <text x="62" y="616" class="section">LIVE flows</text>
  <rect x="401" y="626" width="181" height="36" class="svc" />
  <text x="491" y="648" text-anchor="middle" class="label">pnl-attribution-service</text>
  <line x1="582" y1="644" x2="622" y2="644" class="arrow" />
  <rect x="634" y="626" width="160" height="36" class="api" />
  <text x="714" y="648" text-anchor="middle" class="label">client-reporting-api</text>
  <line x1="794" y1="644" x2="834" y2="644" class="arrow" />
  <rect x="846" y="626" width="153" height="36" class="ui-box" />
  <text x="922" y="648" text-anchor="middle" class="label">client-reporting-ui</text>
  <rect x="189" y="678" width="139" height="36" class="svc" />
  <text x="258" y="700" text-anchor="middle" class="label">execution-service</text>
  <line x1="328" y1="696" x2="368" y2="696" class="arrow" />
  <rect x="380" y="678" width="167" height="36" class="api" />
  <text x="463" y="700" text-anchor="middle" class="label">execution-results-api</text>
  <line x1="547" y1="696" x2="587" y2="696" class="arrow" />
  <rect x="599" y="678" width="174" height="36" class="ui-box" />
  <text x="686" y="700" text-anchor="middle" class="label">execution-analytics-ui</text>
  <line x1="773" y1="696" x2="813" y2="696" class="arrow" />
  <rect x="825" y="678" width="160" height="36" class="ui-box" />
  <text x="905" y="700" text-anchor="middle" class="label">trading-analytics-ui</text>
  <line x1="985" y1="696" x2="1025" y2="696" class="arrow" />
  <rect x="1037" y="678" width="174" height="36" class="ui-box" />
  <text x="1124" y="700" text-anchor="middle" class="label">live-health-monitor-ui</text>
  <rect x="305" y="730" width="230" height="36" class="svc" />
  <text x="420" y="752" text-anchor="middle" class="label">market-data-processing-service</text>
  <line x1="535" y1="748" x2="575" y2="748" class="arrow" />
  <rect x="587" y="730" width="125" height="36" class="api" />
  <text x="649" y="752" text-anchor="middle" class="label">market-data-api</text>
  <line x1="712" y1="748" x2="752" y2="748" class="arrow" />
  <rect x="764" y="730" width="160" height="36" class="ui-box" />
  <text x="844" y="752" text-anchor="middle" class="label">trading-analytics-ui</text>
  <line x1="924" y1="748" x2="964" y2="748" class="arrow" />
  <rect x="976" y="730" width="118" height="36" class="ui-box" />
  <text x="1035" y="752" text-anchor="middle" class="label">batch-audit-ui</text>
  <rect x="443" y="782" width="160" height="36" class="svc" />
  <text x="523" y="804" text-anchor="middle" class="label">ml-inference-service</text>
  <line x1="603" y1="800" x2="643" y2="800" class="arrow" />
  <rect x="655" y="782" width="132" height="36" class="api" />
  <text x="721" y="804" text-anchor="middle" class="label">ml-inference-api</text>
  <line x1="787" y1="800" x2="827" y2="800" class="arrow" />
  <rect x="839" y="782" width="118" height="36" class="ui-box" />
  <text x="898" y="804" text-anchor="middle" class="label">ml-training-ui</text>
  <rect x="450" y="834" width="153" height="36" class="svc" />
  <text x="526" y="856" text-anchor="middle" class="label">ml-training-service</text>
  <line x1="603" y1="852" x2="643" y2="852" class="arrow" />
  <rect x="655" y="834" width="125" height="36" class="api" />
  <text x="717" y="856" text-anchor="middle" class="label">ml-training-api</text>
  <line x1="780" y1="852" x2="820" y2="852" class="arrow" />
  <rect x="832" y="834" width="118" height="36" class="ui-box" />
  <text x="891" y="856" text-anchor="middle" class="label">ml-training-ui</text>
  <rect x="415" y="886" width="139" height="36" class="svc" />
  <text x="484" y="908" text-anchor="middle" class="label">execution-service</text>
  <line x1="554" y1="904" x2="594" y2="904" class="arrow" />
  <rect x="606" y="886" width="167" height="36" class="api" />
  <text x="689" y="908" text-anchor="middle" class="label">trading-analytics-api</text>
  <line x1="773" y1="904" x2="813" y2="904" class="arrow" />
  <rect x="825" y="886" width="160" height="36" class="ui-box" />
  <text x="905" y="908" text-anchor="middle" class="label">trading-analytics-ui</text>
  <rect x="347" y="938" width="146" height="36" class="svc" />
  <text x="420" y="960" text-anchor="middle" class="label">deployment-service</text>
  <line x1="493" y1="956" x2="533" y2="956" class="arrow" />
  <rect x="545" y="938" width="118" height="36" class="api" />
  <text x="604" y="960" text-anchor="middle" class="label">deployment-api</text>
  <line x1="663" y1="956" x2="703" y2="956" class="arrow" />
  <rect x="715" y="938" width="111" height="36" class="ui-box" />
  <text x="770" y="960" text-anchor="middle" class="label">deployment-ui</text>
  <line x1="826" y1="956" x2="866" y2="956" class="arrow" />
  <rect x="878" y="938" width="174" height="36" class="ui-box" />
  <text x="965" y="960" text-anchor="middle" class="label">execution-analytics-ui</text>
  <rect x="558" y="990" width="132" height="36" class="svc" />
  <text x="624" y="1012" text-anchor="middle" class="label">strategy-service</text>
  <line x1="690" y1="1008" x2="730" y2="1008" class="arrow" />
  <rect x="742" y="990" width="100" height="36" class="ui-box" />
  <text x="792" y="1012" text-anchor="middle" class="label">strategy-ui</text>
  <rect x="568" y="1042" width="100" height="36" class="api" />
  <text x="618" y="1064" text-anchor="middle" class="label">config-api</text>
  <line x1="668" y1="1060" x2="708" y2="1060" class="arrow" />
  <rect x="720" y="1042" width="111" height="36" class="ui-box" />
  <text x="775" y="1064" text-anchor="middle" class="label">onboarding-ui</text>
  <rect x="411" y="1094" width="244" height="36" class="svc" />
  <text x="533" y="1116" text-anchor="middle" class="label">position-balance-monitor-service</text>
  <line x1="655" y1="1112" x2="695" y2="1112" class="arrow" />
  <rect x="707" y="1094" width="118" height="36" class="api" />
  <text x="766" y="1116" text-anchor="middle" class="label">settlement-api</text>
  <line x1="825" y1="1112" x2="865" y2="1112" class="arrow" />
  <rect x="877" y="1094" width="111" height="36" class="ui-box" />
  <text x="932" y="1116" text-anchor="middle" class="label">settlement-ui</text>
  <rect x="521" y="1146" width="132" height="36" class="svc" />
  <text x="587" y="1168" text-anchor="middle" class="label">alerting-service</text>
  <line x1="653" y1="1164" x2="693" y2="1164" class="arrow" />
  <rect x="705" y="1146" width="174" height="36" class="ui-box" />
  <text x="792" y="1168" text-anchor="middle" class="label">live-health-monitor-ui</text>
</svg>
